<svg width="70" height="15" viewBox="0 0 70 15" fill="none" xmlns="http://www.w3.org/2000/svg">
	<path d="M1.38114 4.21895H-0.00204468V3.05563H1.38114V0.837584H2.61397V3.05563H4.55343V4.21895H2.61397V8.8877C2.61397 9.2186 2.67411 9.45644 2.79439 9.6012C2.92469 9.73563 3.14519 9.80284 3.45591 9.80284H4.79399V10.9662H3.38074C2.65908 10.9662 2.14289 10.8007 1.83217 10.4698C1.53148 10.1389 1.38114 9.61671 1.38114 8.90322V4.21895Z" fill="#030712" />
	<path d="M8.76606 11.0592C8.02435 11.0592 7.36283 10.8886 6.78149 10.5474C6.21018 10.2061 5.76415 9.73046 5.44342 9.12037C5.12268 8.51027 4.96231 7.80712 4.96231 7.01089C4.96231 6.21467 5.12268 5.51151 5.44342 4.90142C5.76415 4.29133 6.21018 3.81566 6.78149 3.47443C7.36283 3.13319 8.02435 2.96257 8.76606 2.96257C9.50776 2.96257 10.1643 3.13319 10.7356 3.47443C11.3169 3.81566 11.768 4.29133 12.0887 4.90142C12.4094 5.51151 12.5698 6.21467 12.5698 7.01089C12.5698 7.80712 12.4094 8.51027 12.0887 9.12037C11.768 9.73046 11.3169 10.2061 10.7356 10.5474C10.1643 10.8886 9.50776 11.0592 8.76606 11.0592ZM8.76606 9.92693C9.26721 9.92693 9.70823 9.80284 10.0891 9.55467C10.48 9.3065 10.7807 8.96009 10.9912 8.51545C11.2017 8.0708 11.3069 7.56928 11.3069 7.01089C11.3069 6.45251 11.2017 5.95099 10.9912 5.50634C10.7807 5.0617 10.48 4.71529 10.0891 4.46712C9.70823 4.21895 9.26721 4.09486 8.76606 4.09486C8.26491 4.09486 7.81888 4.21895 7.42798 4.46712C7.0471 4.71529 6.75142 5.0617 6.54094 5.50634C6.33046 5.95099 6.22521 6.45251 6.22521 7.01089C6.22521 7.56928 6.33046 8.0708 6.54094 8.51545C6.75142 8.96009 7.0471 9.3065 7.42798 9.55467C7.81888 9.80284 8.26491 9.92693 8.76606 9.92693Z" fill="#030712" />
	<path d="M21.013 3.05563V10.5784C21.013 12.9671 19.7451 14.1614 17.2093 14.1614C16.217 14.1614 15.4051 13.9287 14.7737 13.4634C14.1522 12.9981 13.7914 12.3363 13.6912 11.478H14.9541C15.0543 11.9744 15.3099 12.357 15.7209 12.6258C16.1318 12.8947 16.658 13.0291 17.2995 13.0291C18.9533 13.0291 19.7802 12.1967 19.7802 10.5319V9.6012C19.2289 10.5732 18.3519 11.0592 17.1491 11.0592C16.4375 11.0592 15.801 10.8989 15.2397 10.5784C14.6885 10.2578 14.2525 9.7925 13.9317 9.18241C13.621 8.57232 13.4657 7.84848 13.4657 7.01089C13.4657 6.21467 13.621 5.51151 13.9317 4.90142C14.2525 4.29133 14.6935 3.81566 15.2548 3.47443C15.8161 3.13319 16.4475 2.96257 17.1491 2.96257C17.7706 2.96257 18.3018 3.09183 18.7428 3.35034C19.1838 3.59851 19.5296 3.95526 19.7802 4.42059L19.9456 3.05563H21.013ZM17.2694 9.92693C17.7605 9.92693 18.1965 9.80801 18.5774 9.57018C18.9683 9.32201 19.269 8.98077 19.4795 8.54647C19.69 8.10182 19.7952 7.60031 19.7952 7.04192C19.7952 6.47319 19.69 5.9665 19.4795 5.52185C19.269 5.06687 18.9683 4.71529 18.5774 4.46712C18.1965 4.21895 17.7605 4.09486 17.2694 4.09486C16.5077 4.09486 15.8912 4.36888 15.4202 4.91693C14.9591 5.45464 14.7286 6.15263 14.7286 7.01089C14.7286 7.86916 14.9591 8.57232 15.4202 9.12037C15.8912 9.65808 16.5077 9.92693 17.2694 9.92693Z" fill="#030712" />
	<path d="M22.1746 7.01089C22.1746 6.20433 22.3249 5.496 22.6256 4.88591C22.9363 4.27582 23.3673 3.80532 23.9186 3.47443C24.4698 3.13319 25.1013 2.96257 25.8129 2.96257C26.5145 2.96257 27.136 3.11251 27.6772 3.41238C28.2185 3.71226 28.6444 4.14656 28.9552 4.71529C29.2659 5.28402 29.4313 5.95099 29.4513 6.71619C29.4513 6.82994 29.4413 7.01089 29.4212 7.25907H23.4675V7.36764C23.4876 8.14319 23.7181 8.76362 24.1591 9.22894C24.6001 9.69427 25.1765 9.92693 25.8881 9.92693C26.4394 9.92693 26.9054 9.78733 27.2863 9.50814C27.6772 9.2186 27.9378 8.82049 28.0681 8.3138H29.316C29.1656 9.12037 28.7898 9.78216 28.1884 10.2992C27.587 10.8059 26.8503 11.0592 25.9783 11.0592C25.2166 11.0592 24.55 10.8938 23.9787 10.5629C23.4074 10.2216 22.9614 9.74597 22.6406 9.13588C22.3299 8.51545 22.1746 7.80712 22.1746 7.01089ZM28.1734 6.20433C28.1132 5.5322 27.8677 5.01 27.4367 4.63774C27.0157 4.26548 26.4795 4.07935 25.828 4.07935C25.2466 4.07935 24.7355 4.27582 24.2944 4.66876C23.8534 5.0617 23.6029 5.57356 23.5427 6.20433H28.1734Z" fill="#030712" />
	<path d="M31.0339 4.21895H29.6508V3.05563H31.0339V0.837584H32.2668V3.05563H34.2062V4.21895H32.2668V8.8877C32.2668 9.2186 32.3269 9.45644 32.4472 9.6012C32.5775 9.73563 32.798 9.80284 33.1087 9.80284H34.4468V10.9662H33.0335C32.3119 10.9662 31.7957 10.8007 31.485 10.4698C31.1843 10.1389 31.0339 9.61671 31.0339 8.90322V4.21895Z" fill="#030712" />
	<path d="M38.8352 2.96257C39.7674 2.96257 40.5191 3.2521 41.0904 3.83117C41.6617 4.41025 41.9474 5.32021 41.9474 6.56108V10.9662H40.7146V6.63864C40.7146 5.82173 40.5342 5.2013 40.1733 4.77734C39.8125 4.34303 39.2963 4.12588 38.6248 4.12588C37.9131 4.12588 37.3468 4.38439 36.9259 4.90142C36.5149 5.41845 36.3094 6.12161 36.3094 7.01089V10.9662H35.0766V0.108575H36.3094V4.35854C36.56 3.94492 36.8908 3.60885 37.3017 3.35034C37.7227 3.09183 38.2339 2.96257 38.8352 2.96257Z" fill="#030712" />
	<path d="M43.001 7.01089C43.001 6.20433 43.1514 5.496 43.452 4.88591C43.7628 4.27582 44.1937 3.80532 44.745 3.47443C45.2963 3.13319 45.9277 2.96257 46.6394 2.96257C47.341 2.96257 47.9624 3.11251 48.5037 3.41238C49.0449 3.71226 49.4709 4.14656 49.7816 4.71529C50.0923 5.28402 50.2577 5.95099 50.2777 6.71619C50.2777 6.82994 50.2677 7.01089 50.2477 7.25907H44.294V7.36764C44.314 8.14319 44.5446 8.76362 44.9856 9.22894C45.4266 9.69427 46.0029 9.92693 46.7145 9.92693C47.2658 9.92693 47.7319 9.78733 48.1128 9.50814C48.5037 9.2186 48.7643 8.82049 48.8946 8.3138H50.1424C49.9921 9.12037 49.6162 9.78216 49.0148 10.2992C48.4134 10.8059 47.6768 11.0592 46.8048 11.0592C46.043 11.0592 45.3765 10.8938 44.8052 10.5629C44.2338 10.2216 43.7878 9.74597 43.4671 9.13588C43.1564 8.51545 43.001 7.80712 43.001 7.01089ZM48.9998 6.20433C48.9397 5.5322 48.6941 5.01 48.2631 4.63774C47.8421 4.26548 47.3059 4.07935 46.6544 4.07935C46.0731 4.07935 45.5619 4.27582 45.1209 4.66876C44.6799 5.0617 44.4293 5.57356 44.3691 6.20433H48.9998Z" fill="#030712" />
	<path d="M55.3312 3.05563V4.2965H54.7148C53.9831 4.2965 53.4569 4.54984 53.1362 5.05653C52.8255 5.56322 52.6701 6.18882 52.6701 6.93334V10.9662H51.4373V3.05563H52.5047L52.6701 4.24997C52.8906 3.88805 53.1763 3.59851 53.5271 3.38136C53.8779 3.16421 54.364 3.05563 54.9855 3.05563H55.3312Z" fill="#030712" />
	<path d="M67.8882 9.80284V10.9662H67.2117C66.7206 10.9662 66.3697 10.8628 66.1593 10.6559C65.9488 10.4491 65.8385 10.1441 65.8285 9.7408C65.2371 10.6197 64.3802 11.0592 63.2576 11.0592C62.4056 11.0592 61.719 10.8524 61.1978 10.4388C60.6867 10.0252 60.4311 9.46161 60.4311 8.74811C60.4311 7.95189 60.6917 7.34179 61.2129 6.91783C61.7441 6.49387 62.5109 6.28189 63.5132 6.28189H65.7684V5.73901C65.7684 5.22198 65.598 4.8187 65.2572 4.52916C64.9264 4.23963 64.4604 4.09486 63.859 4.09486C63.3277 4.09486 62.8867 4.21895 62.5359 4.46712C62.1951 4.70495 61.9847 5.02551 61.9045 5.42879H60.6716C60.7618 4.65325 61.0926 4.04833 61.6639 3.61402C62.2453 3.17972 62.997 2.96257 63.9191 2.96257C64.9014 2.96257 65.6581 3.21074 66.1893 3.70709C66.7306 4.19309 67.0012 4.89625 67.0012 5.81656V9.22894C67.0012 9.61154 67.1716 9.80284 67.5124 9.80284H67.8882ZM65.7684 7.35213H63.3929C62.2503 7.35213 61.679 7.79161 61.679 8.67055C61.679 9.06349 61.8293 9.37888 62.13 9.61671C62.4307 9.85455 62.8366 9.97346 63.3478 9.97346C64.0995 9.97346 64.6909 9.77182 65.1219 9.36854C65.5529 8.95492 65.7684 8.41204 65.7684 7.7399V7.35213Z" fill="#030712" />
	<path d="M69.2052 0C69.4357 0 69.6261 0.0775541 69.7765 0.232662C69.9268 0.38777 70.002 0.584241 70.002 0.822074C70.002 1.05991 69.9268 1.25638 69.7765 1.41148C69.6261 1.56659 69.4357 1.64415 69.2052 1.64415C68.9747 1.64415 68.7842 1.56659 68.6339 1.41148C68.4835 1.25638 68.4083 1.05991 68.4083 0.822074C68.4083 0.584241 68.4835 0.38777 68.6339 0.232662C68.7842 0.0775541 68.9747 0 69.2052 0ZM68.5888 3.05563H69.8216V10.9662H68.5888V3.05563Z" fill="#030712" />
	<path d="M58.0205 9.76167C58.0205 10.4269 57.4915 10.9662 56.8388 10.9662C56.1862 10.9662 55.6572 10.4269 55.6572 9.76167C55.6572 9.09644 56.1862 8.55716 56.8388 8.55716C57.4915 8.55716 58.0205 9.09644 58.0205 9.76167Z" fill="#0F6FFF" />
</svg>
